<?xml version="1.0" encoding="utf-8"?>
<!-- Generator: Adobe Illustrator 15.0.2, SVG Export Plug-In . SVG Version: 6.00 Build 0)  -->
<!DOCTYPE svg PUBLIC "-//W3C//DTD SVG 1.1//EN" "http://www.w3.org/Graphics/SVG/1.1/DTD/svg11.dtd">
<svg version="1.1" id="Layer_1" xmlns="http://www.w3.org/2000/svg" xmlns:xlink="http://www.w3.org/1999/xlink" x="0px" y="0px"
	 width="24px" height="24px" fill="#fff" viewBox="0 0 24 24" enable-background="new 0 0 24 24" xml:space="preserve">
<g>
	<g>
		<path d="M16.577,18.482v-7.135H7.33v7.135H16.577z M7.216,14.952V13.58c0,0-0.077,0-0.207-0.015l0.001,1.391
			C7.079,14.959,7.147,14.957,7.216,14.952z M4.168,10.936c-0.206,0-0.411,0.279-0.411,0.279c-0.436-0.46-1.413-0.354-1.667,0.238
			c-0.255,0.59,0.074,1.116,0.452,1.428s1.249,0.272,1.249,0.272l0.896-1.685C4.718,11.043,4.374,10.936,4.168,10.936z
			 M17.108,9.711c0-2.847-2.309-5.155-5.155-5.155c-2.848,0-5.155,2.308-5.155,5.155v0.576h10.31V9.711z M10.22,9.55
			c-0.326,0-0.589-0.264-0.589-0.589s0.264-0.589,0.589-0.589c0.325,0,0.589,0.264,0.589,0.589S10.545,9.55,10.22,9.55z
			 M13.687,9.55c-0.325,0-0.589-0.264-0.589-0.589s0.264-0.589,0.589-0.589c0.326,0,0.59,0.264,0.59,0.589S14.013,9.55,13.687,9.55z
			 M16.989,14.956l0.001-1.391c-0.13,0.015-0.207,0.015-0.207,0.015v1.372C16.853,14.957,16.921,14.959,16.989,14.956z
			 M4.661,12.267L4.135,13.17c0,0,0.441,0.544,1.087,1.032l0.324-1.128C5.235,12.886,4.925,12.625,4.661,12.267z M6.666,13.512
			c-0.245-0.052-0.549-0.142-0.865-0.298l-0.204,1.247c0.33,0.207,0.694,0.378,1.069,0.454V13.512z M21.909,11.454
			c-0.254-0.592-1.231-0.698-1.667-0.238c0,0-0.205-0.279-0.411-0.279c-0.205,0-0.55,0.107-0.518,0.534l0.896,1.685
			c0,0,0.87,0.04,1.248-0.272S22.164,12.044,21.909,11.454z M17.334,13.512v1.403c0.376-0.076,0.739-0.247,1.069-0.454l-0.205-1.247
			C17.883,13.37,17.578,13.46,17.334,13.512z M18.453,13.074l0.324,1.128c0.646-0.488,1.087-1.032,1.087-1.032l-0.525-0.903
			C19.074,12.625,18.765,12.886,18.453,13.074z M12.721,19.443h5.248v-0.673h-5.248V19.443z M5.938,19.443h5.247v-0.673H5.938
			V19.443z"/>
	</g>
</g>
</svg>
